<svg version="1.1" xmlns="http://www.w3.org/2000/svg" viewBox="0 0 900 436">
  <!-- svg-source:excalidraw -->
  <defs>
    <style>
      @font-face {
        font-family: "Virgil";
        src: url("https://excalidraw.com/FG_Virgil.woff2");
      }
      @font-face {
        font-family: "Cascadia";
        src: url("https://excalidraw.com/Cascadia.woff2");
      }
    </style>
  </defs>
  <rect x="0" y="0" width="900" height="436" fill="#ffffff"></rect><g transform="translate(385 11) rotate(0 107 60.5)"><path d="M0 0 C0 0, 0 0, 0 0 M0 0 C0 0, 0 0, 0 0 M-0.2386132463486741 6.680123790403001 C1.5423716975581248 4.1603104885216045, 3.179309137088807 1.615735436611775, 4.936808844240851 0.8390747893450076 M-0.28136101548093057 6.402560007249109 C1.5747468596540866 4.632193063859552, 3.105123517717447 1.9749134326028097, 4.800741122620648 0.7140844605711514 M0.6070047908555374 12.108437981128274 C3.6488634691512085 9.964989853139961, 4.035763599692947 7.001457739616194, 11.431193393421305 1.2349047373130682 M0.851655732197653 12.054027506380855 C4.854962455210527 6.97580177236385, 9.022211399193775 2.2749734111479025, 10.8037117234887 0.06721542059329766 M-0.7818788113584976 18.0882137947722 C3.746016607249517 16.313085430252, 7.8542070037398695 9.860798663848911, 13.870462549387891 0.13568683964432982 M-0.4583567437296967 18.82194030461895 C4.673969727843021 13.630862979323705, 10.223668496247853 7.9801584448221, 15.112767179034133 -0.5775355066242644 M0.10373018516220789 25.1201251518867 C7.931953829399651 17.28040031395636, 14.807566618311053 10.733381589120933, 20.86758660925355 1.070437073165131 M0.11916928479441147 24.38090349798566 C8.167608064242085 15.665627773248364, 16.31365017782134 6.439985379573674, 21.25371924349841 0.07882470676447184 M1.187793321027364 29.111894786123386 C6.0667309651739 24.351243096076026, 10.066996781894554 19.244786764151417, 27.324822523307414 -1.5554011935356318 M-0.12024761917540872 30.667670258086375 C5.542012695621954 23.87312713354536, 11.734655576314845 17.451579586658102, 25.703247174296887 -0.6190732806909143 M0.7810937463212291 36.49686243366574 C10.832649582174028 23.080073532626134, 19.233463554043137 12.587345904425405, 31.542996845624245 0.6965678205027466 M-0.22046908094552364 36.0576274402452 C8.91091157207252 27.228204347652653, 16.66865381890687 18.422591953319234, 32.6721811876137 -0.44606000638909293 M0.6690239861280673 40.57750845569723 C10.116232016531868 30.642152311475, 17.175188553794605 21.631220900497993, 37.110809389316785 0.7152188421320638 M0.6779635866777056 42.10096658728622 C12.664447780334203 28.497559214004788, 25.252159356024826 13.940579852759925, 35.93168569617097 1.2354270006623587 M-0.919091146439392 47.85208257906966 C12.478509560582532 33.769384363630095, 24.333687738745027 19.884089763777055, 43.09080545845978 -0.13527109768698153 M0.4009022964163833 49.25556267020188 C9.32411133753438 37.317083090169106, 20.727142543615088 24.908383915857556, 42.092981541152824 -0.09358342193523583 M0.21991865269361455 54.794136834743725 C9.16489221110696 42.27894408614831, 20.381206798394587 31.139200671324417, 45.708403616165995 2.0847539778974102 M0.3642553894546481 54.07275702659349 C11.31856358438057 41.06848815198986, 23.182900115228442 29.700606627926543, 48.390123760281384 -0.6021694281894518 M-0.047903053360172976 61.952702199571235 C16.58992037691248 40.93522077060903, 36.17626601893901 21.329890309434248, 52.537867916510166 -2.0847476501540534 M-0.6432345964853852 60.70378400245349 C17.82132721426817 41.69903561703195, 35.1681368634417 20.453188669933773, 53.95972381974077 0.32155719450104314 M-0.6637262395164996 66.73182153473566 C14.63896314552309 51.513722856328684, 30.190456499760757 36.07315745973315, 56.19133567260505 -1.40333875498958 M0.1636722757899136 68.08555389060596 C12.491807383454418 53.65876438425012, 23.979866105638845 37.72369012149781, 57.62372738225312 -0.4231223328713334 M1.5933884943088898 73.71717832642047 C21.814099796876413 48.075239220617334, 41.157154623791925 25.88480334263489, 64.50478968852539 0.094720194351531 M0.6297862559741745 73.67353167137502 C16.86829160666216 55.23162437301437, 30.86901469268034 37.767734560362875, 63.16913653900255 0.781539577294744 M-0.9241871637712649 79.00272542647747 C22.9899141852876 51.60224325723861, 44.09826673363274 28.834352429600507, 70.22708602738395 1.2006476747210755 M-0.2774391807104877 80.17461575325308 C21.533820333535388 54.77714857792582, 44.58029861043028 29.823647207154096, 69.13078757771119 -0.2218164790083037 M0.7972639653177964 84.97021799086735 C27.95279837655692 54.090420103658175, 52.134099919809465 22.754328556074064, 73.20592624325546 -0.4440355329202248 M1.1557558694200623 85.73292091134147 C27.350534172788638 51.787312534342725, 55.62448995781857 19.91537730180437, 74.07107321456316 -0.9345835391791297 M0.12183231968881358 92.38939012144193 C27.660766040305386 62.85102705543005, 56.39480731501869 30.45441920662718, 78.07688514925269 1.7526702982793978 M0.17221550658793916 92.43620492913261 C24.829166829234506 62.1917013904967, 48.1812056408878 35.19823106452154, 80.36272036228058 -0.6957616322253415 M-1.7061052005739583 99.19748780438468 C21.959063846932732 68.25629538226397, 49.16950680217992 42.01339492217077, 84.44938304945038 -0.6419328007193315 M-0.8324687695132269 98.50165153695062 C16.09252784802944 78.57977385073261, 34.22267699199574 57.9367996870188, 85.46851236204759 -0.2508844205455887 M-0.5925623203862642 104.82589765087906 C29.817297203836088 68.16379808349765, 61.86496330063601 34.020105531315735, 88.59571350696126 -0.9850638530646307 M-0.24688514668980588 103.00874915261957 C26.948109428028648 73.09002282585982, 54.93067713819073 42.20097175218154, 89.72406675158629 -0.2455925581474645 M-0.6246204766353642 108.52677563777686 C20.90491221969949 85.72033875331724, 39.896431326878414 63.68337691684296, 97.63701557586015 -1.5336395777957819 M-0.18072858721968288 109.6321696221319 C28.39889421544289 79.13779655586868, 55.346746545745724 49.154740199587415, 95.61755749708087 -0.7945603324296258 M-0.5405156152464983 114.15258004603884 C25.950706903373245 83.77834198393612, 55.662274570460546 54.105433081708135, 99.2323015692597 0.6559022519390041 M0.1588623750812772 115.82755115808895 C30.95616751784968 80.42889646760705, 62.134694681213 45.32007181479449, 101.57249276125336 0.024930977600341464 M0.6154486058835857 119.50153852229397 C40.595293715360334 78.57693277564678, 75.63763752368239 32.774915828647735, 107.76442929123473 -2.247573832899569 M0.9061424319257014 121.58321540126036 C24.272830460139545 96.28932011526021, 47.68757342698138 68.63939691298432, 107.22743713528794 0.6040664595437661 M7.647050135782166 122.0783426963891 C35.68424039925818 84.72700419105433, 67.36577824386335 50.03477500060923, 110.02912980489798 1.250275644540288 M4.784658819450243 121.58711203813358 C38.42346150212508 83.88637280096998, 73.38295600522056 44.5453890874802, 111.21878940690674 -0.6910757906069378 M10.366408921599984 123.00554936606713 C36.916197159558635 92.62552876879221, 60.74672412100719 63.090947272493096, 114.76492063533368 -1.2511939545579267 M10.361261709415018 120.54446998559214 C49.00626478400835 78.27431615190426, 87.53893373663739 34.81282623213799, 115.80444576330336 -0.33374173002764707 M15.68449040144975 120.25601763317985 C41.225262339259686 93.19725160641255, 69.70222924316809 63.99996389590459, 121.6224286826261 0.2790133559892354 M17.230357702042113 120.81648452712847 C56.4682915985921 75.20212023753231, 96.95427791341105 29.337767398407152, 121.92687270417144 0.09637737160571191 M22.54860550440622 120.71540890368794 C46.882238933722405 90.37002928262423, 76.30962946385708 58.10678927526766, 128.13371313488796 -1.3698370719664084 M21.045159826015656 121.88906731284385 C50.200427328639236 91.41786988268304, 77.26296712483712 59.51144399913826, 127.2761799547331 0.6460236727855815 M25.631438418582157 120.28236352944324 C66.9510875402902 76.23446990162557, 108.65796351440713 29.632169538848146, 133.24217867119404 0.12932241753584606 M26.30046530655779 120.87927300123076 C64.21308735029346 78.0491625249308, 101.12922701593325 36.32706398978769, 131.91378366867247 -0.8258443013867094 M31.51701882305231 121.89332416640642 C63.642295137625865 81.13226598926369, 99.48661527970455 45.35711069383041, 136.9916032296571 0.7415384263477591 M32.612377797352636 121.96637261739048 C57.34584021253483 92.90320993856162, 80.06950486435517 67.42558727268522, 137.05518419621168 -0.1416250174187752 M38.38974965592941 119.6227124164293 C60.87564151574074 90.87653195969789, 87.0176848912289 64.79696749855475, 144.71211023935186 0.09465986043009877 M37.501085148622295 120.89828019481547 C74.93507148640492 80.82913297914988, 111.7546529220833 39.26324959281922, 143.34968831603484 0.625999424790777 M43.56432031729773 121.46246176569534 C63.33260067318366 94.36055750996123, 86.06356110607155 69.67104477917334, 146.70919638839106 1.5795145716346042 M42.014522610060425 121.17733571382982 C81.10878045164512 76.05032569048299, 122.35764612934528 29.998256045014756, 147.66318700336407 -0.3395100662656887 M46.455029582241515 121.648646325388 C81.59133872751931 78.48150746057462, 120.2749702748292 37.74145761153805, 154.44970385584952 -1.6252672840779923 M48.79144574386064 120.7931838422576 C77.86601237215334 87.58423878605736, 106.86133210046852 54.80665346582805, 153.35787766188355 0.8325237845131852 M53.54510851387351 122.98810957235912 C80.30033584029586 89.4862522823997, 105.36916419330777 63.56203244032841, 160.2508480798399 1.5469233951440913 M53.12450333774506 121.95565267609129 C93.56161242425887 76.37306449751645, 131.31653408204852 31.018221289145785, 159.07504189181532 0.20642126061980548 M59.91663366626845 121.63799728756936 C91.93537834537858 82.87459865466116, 121.61010842508281 48.106860345375935, 165.466189989437 -1.924501984738427 M59.5839006078978 122.28053667793216 C90.35972857007675 83.74943512354355, 123.64422427400343 47.52601630847539, 165.01476772184355 -0.5287809878444847 M62.93955485253912 121.20593419787056 C104.78898647364815 71.8403807416482, 149.37738532419274 26.641565959855484, 168.17466377275355 -1.0471530718737654 M63.80017696704101 122.29602331877268 C94.23181431373345 86.01633626603177, 124.89787683792545 48.70987190924511, 169.71872737719036 0.4470966976127215 M68.45766737676026 120.7748473342234 C111.93357671723433 74.69199148230066, 149.27218793206924 29.010004294388665, 175.36654910886432 1.2091627896988086 M69.74392825635881 121.87376643621415 C91.02964839358746 94.36436930250711, 115.66217940624263 67.16620409384961, 174.3498995115399 0.5164503420927815 M72.47763980204458 121.00314267347966 C107.94692438530952 78.84440426464927, 146.2979629657858 36.94492067076125, 178.63249893588204 0.012617201831034208 M73.5085845135733 121.735312876249 C111.25885957955873 77.9065697784205, 150.71560593119113 34.991361319591945, 179.47534697511423 1.1303189790880595 M79.35498618246689 120.14952849660007 C111.24640666920101 88.7712377079983, 138.83708248188964 54.09277497131609, 186.3495116828815 -1.3058159295163136 M80.59013220486864 121.88317585147855 C105.73635108690313 91.67229821604542, 131.8884321820364 62.88970734337693, 185.34593904659758 -0.7605419913000446 M83.48309383113988 120.17319203043641 C114.79215732174177 86.89685792416111, 144.80917898820726 52.22448215946591, 191.36995903797543 0.84781624750849 M85.66989199296691 121.10726158289523 C106.58488770078816 96.99801494082388, 129.4467738552692 71.60633356101395, 190.679129201212 -0.19923416057918075 M91.47919555213836 122.7586228059494 C120.72295820555613 84.87338285954644, 154.9494655908499 48.58517608898978, 195.20755818023855 0.3552688888662203 M89.89424096905229 121.41594265810038 C113.16986079679836 95.52117089026413, 135.22994267855776 71.03514185191061, 196.9386773426416 -0.7916427536479489 M95.87339740857503 123.41578929999082 C126.1990642757758 88.92282484979152, 154.10674140938443 56.55499031794356, 199.72639954778361 1.4862760964086164 M96.65739042084685 121.54248467308639 C118.77343591286234 94.8183229725791, 142.96344056732886 68.70878834970733, 201.11742757110852 -0.20000998701398487 M101.29465095452468 119.50496229352139 C132.13747235372782 88.62330806885124, 158.87129041622947 59.90473805861267, 207.3269190696854 0.9233742760964105 M100.88110806453477 121.37611959045462 C123.71208701904149 95.03917426994212, 145.32768937896947 67.73702478228958, 206.01703041529692 -0.7118617105759313 M106.15978100310002 120.33689151339289 C138.2458634292003 87.84191738983309, 165.81380270438757 53.65069626397083, 212.63492593405664 -0.1379212202186153 M106.79749581283812 121.46847238119747 C147.74597305259724 74.8463378802987, 188.88115329905386 27.899939208769098, 211.03072060042888 -0.7335807658413813 M112.85945785837583 119.19762899056605 C150.86153643216238 77.59973995087904, 191.48179826336064 31.234791596072384, 216.7193977330006 0.29983600409258315 M111.22871200694107 121.4646343829163 C147.4461394873906 79.59791408090804, 182.20121838959733 39.120359463690804, 216.45486219321705 2.9047951129593343 M117.44722508346486 123.4487057018926 C155.21929566813031 79.37711701651958, 191.01464420952976 32.43789328243736, 214.06180337563944 9.36265213110454 M117.36974918456572 121.60958994160347 C143.57514507249113 92.53061926021489, 169.07347258228006 62.37178725143593, 215.552021514893 7.682452039541374 M123.82547173244186 122.55195492833334 C154.8992314919591 86.84608848522424, 184.82048357235388 52.88649543622151, 217.39813434902902 12.57520690633244 M122.06815631189622 121.17928976986039 C154.65771165034232 84.35172641985031, 188.06582340215726 46.43882211972681, 215.48674840212192 14.06416375356055 M129.43446011841957 122.16968889674 C156.43423981503037 86.6386686281675, 190.14055490120006 50.32179381721167, 216.75187345724407 18.715739860736974 M127.60681655165466 121.98707758867941 C162.12059591243985 83.13928427382649, 197.63085692314752 42.32637560952951, 215.45229494608793 18.761427842618176 M131.43829804547272 120.1895221380733 C153.7984985037817 98.92112578120634, 172.05512287173224 77.79638609750678, 217.05937676339732 25.387969471169953 M132.9836694950252 120.8147634856619 C165.89115694116634 83.92693047773804, 197.7238872502533 49.34886342060072, 216.38974743451314 25.710634902706687 M136.41396657671407 120.82454812918503 C169.61232841087832 84.1992919414007, 201.2430816537822 48.30826674986049, 215.69978679257304 31.800626098814845 M137.6944889297299 120.91905055680026 C159.69142611565448 97.02782144772868, 182.22764582288687 73.61197976110515, 215.61168955459118 33.25885147665018 M142.53729226621837 122.63816265103591 C162.24209749137836 101.8855474419338, 181.1285957113099 78.66636114348884, 215.4643554448554 37.09408072985511 M143.01260507195295 120.46260826469583 C162.11197401534193 99.42025178937716, 179.0306321099212 79.98726424888343, 215.86527530601563 37.89669879477273 M149.27197492709843 120.64424043047772 C172.05293667853607 97.14177987098182, 192.26202353601994 71.72115852285651, 215.5257669083573 44.66697371614259 M149.77168233441648 122.02049908034103 C166.06001445781828 103.8235248920792, 179.8975026349104 85.96508345025177, 215.3953019140087 44.991231515566824 M155.55555986342893 122.33195849847118 C180.65620918645968 93.65012301764048, 202.10747208613836 64.76867834451166, 214.9680508621534 48.95574771363793 M153.64544155830458 121.01125184133718 C175.9816709817869 95.26858063638946, 198.340260800707 68.51660023810143, 215.5678730322545 50.97172066413371 M157.48846563832265 121.76597283186808 C179.74220791616722 98.88305152546978, 196.71411555527035 78.23226334709845, 216.47561024435646 55.534824324192996 M158.9304377813394 121.20328839367673 C178.5301107312392 101.51224281164889, 197.05720369741994 80.0871438846313, 215.65317651097513 55.83608027396589 M165.8638972768638 120.36595129185189 C180.1255030156029 99.65321630137264, 197.72278659700424 81.15184132297928, 213.86313445505073 63.89613703399121 M165.16972344071453 121.90070653018374 C185.34515296282976 98.29502852368859, 205.0442213365672 75.69850646663302, 216.4491475998642 63.33665032538741 M171.13716917913672 121.23320236460607 C189.4617935654861 101.28146228806524, 205.16669397713474 78.81909719972485, 215.04492226932047 67.77575995421604 M170.21592128612366 121.67615873118233 C180.12106753220638 108.76768880558366, 190.4018159899383 97.65236929588713, 216.34454186111537 67.71307548622237 M174.39502803325405 121.47730390198248 C191.6601447671137 103.43775592910589, 205.23657876660508 86.70872955911192, 215.0042047502784 73.48053656171935 M174.29429729278883 121.10373090516495 C183.0740374068744 111.00761868986207, 191.82801760178157 102.58943383132225, 216.38200808245074 75.42518385246323 M178.88556601829058 122.99563605994175 C193.75731736240792 106.77768851978321, 204.88862684283822 94.71480026447428, 217.32305845199926 80.66761263746177 M181.62642386439418 120.94472532723287 C192.55709467001003 108.1774750290516, 204.0420667017331 93.64199748246405, 216.8817514800544 80.33876988671129 M185.7072485723591 120.5735579403357 C190.75968178268585 112.37529715300073, 200.56438010861632 106.03200868158342, 215.87143318759587 88.44461290829514 M185.21295760116192 122.65408728087856 C195.51903958938956 110.4498781176606, 206.7821039769859 98.88187092854699, 215.22431146664854 87.23202105995898 M189.99488662453433 119.90923094912509 C196.60149718613565 115.15709820203628, 203.9102910821933 104.7066096720451, 216.33706523215244 92.14917398540294 M191.1133615317761 121.81147841620336 C198.53698262583038 111.51525065614894, 205.87437194630476 102.92904522419117, 216.47422485442678 92.98130079003042 M196.60866436292903 121.71379543816161 C201.67553677900577 113.70500717837196, 206.67603920147442 110.0763003556446, 217.19480023575323 97.67557310496859 M197.22868288145887 122.62770339169961 C203.42647346305242 113.79580919188375, 209.1861660094407 108.0268377280791, 216.44309876808273 98.29402718224965 M200.32011146661793 119.73619406340603 C204.46947011441827 116.8386489070658, 209.5184727984652 114.70130156245952, 216.67591613651095 105.80135686884395 M201.58127530389433 121.3757832324687 C205.8263898072151 116.39143067995845, 211.68566387935485 111.89250718628954, 215.75268355783848 104.44155177010916 M205.94420907404663 121.09115669228443 C209.7762506453594 118.59170759577539, 211.13633237124472 117.34436374973122, 216.2574908386574 110.99384448474446 M207.0617211169602 121.11498017398947 C209.74326852693852 118.11706218461468, 212.53855822722326 115.22766460382744, 215.66984058587184 111.32849227424883 M213.04334223708008 121.7073259387802 C213.75174728849933 120.16549611743494, 213.62087822391916 119.62899373491894, 216.06461024368022 117.43478262925053 M212.4378072828507 121.42955033287254 C213.74561526489302 119.83142956590379, 215.18823791548954 118.4610139813246, 215.88427011170265 117.23627193982246" stroke="#ced4da" stroke-width="0.5" fill="none"></path><path d="M1.211423986214166 1.332723344013483 C74.98728740626946 1.512902333885058, 149.59795311773635 -0.29764720121952637, 215.2222534214729 1.6036679189487524 M-0.054492549709722025 -0.4934670379919741 C63.36829727967565 -2.1117327422269865, 127.38506570928419 -1.873256695782749, 213.86915283854182 -0.8174155471822115 M213.23139888606966 -1.1443705316632986 C212.8947970694583 36.52175581241027, 212.93224195900373 72.96598312389106, 215.87675357423723 121.77178200520575 M214.33276579994708 0.9379292456433177 C215.43827079468406 28.04808820867911, 213.86503203445113 56.60939139015973, 213.81870747823268 121.82868176978081 M214.78144302406832 122.02192840154126 C164.11634267867316 120.79222966186423, 114.42804898108609 119.45777126765778, -1.4521247192511266 121.52612502885843 M213.24102524148017 121.01816108895359 C166.87926537733964 121.09983804510163, 119.36682094498964 120.9508001075348, -0.8737515408790912 120.98531582538637 M1.9443828519433737 122.30464615859091 C0.47386105579324056 89.91511037042365, -1.6995667048078031 62.9248913699761, -1.3514741603285074 -1.009193217381835 M0.19404439348727465 121.71691802423447 C0.19883779569529003 77.5643965321593, -0.5550058992300182 33.00846603587269, -0.11378185730427504 -0.3640339346602559" stroke="#000000" stroke-width="1" fill="none"></path></g><g transform="translate(10 27) rotate(0 60.5 43.5)"><path d="M0.8914082106202841 1.16573485173285 C26.98930798182264 1.7439103728812189, 54.2014712875709 0.2216660982649773, 119.34353131614625 0.6001616958528757 M-0.8657781956717372 0.020716729573905468 C26.668837372679263 1.2383637228701263, 52.89084326848388 1.0683530667517334, 120.00329355616122 -0.016750541515648365 M122.94438285194337 1.3046461585909128 C121.6472407212574 19.555008731689306, 119.47381296065636 43.204688092507425, 119.64852583967149 85.99080678261817 M121.19404439348727 0.7169180242344737 C121.45859718023799 31.800115651171655, 120.70475348531268 62.47990427389741, 120.88621814269572 86.63596606533974 M121.88489068113267 85.55806895531714 C88.65946793472395 86.01357224297709, 55.29623352754861 89.28319427085108, -0.004710609093308449 87.61418845690787 M121.04864103812724 86.9515514401719 C87.11899796938523 87.41610772720539, 53.65610313825309 86.1816153358575, 0.9150215210393071 86.00384208839387 M0.05710894428193569 87.70584943331778 C-0.4622105364222079 56.394988843146706, -0.911696494044736 25.143723361007865, -0.12551640905439854 1.1974185351282358 M-0.04976047854870558 87.01193997543305 C-0.15004145941697067 59.015377991739655, -0.6476004405971617 28.67882253117859, -0.4656857131049037 0.8849427131935954" stroke="#000000" stroke-width="1" fill="none"></path></g><g transform="translate(343 196) rotate(0 149 115)"><path d="M-1.1978320571455383 -1.1776512722735384 C118.99188777799083 -1.6263330153439646, 235.99920941025627 0.27834870654393407, 298.18398647308953 0.4286969073794149 M0.2440662988865506 -0.297520847316451 C94.84539171351463 -0.8520029053350933, 190.09688840823418 -0.9759612188289768, 298.5027142931369 0.5352448128244568 M296.41426863960737 0.05982249112872406 C297.783911425083 79.17223895661472, 297.1126039131615 157.91985382570712, 296.491394736045 230.1450236292359 M298.265939789205 -0.7673152837461139 C297.12194469981773 70.89648471916439, 297.05858206835876 140.62970544168894, 298.50822951720363 229.21294494024247 M297.63875335232865 229.71161745827374 C206.5505346622318 229.97119576733934, 118.38020500212532 230.49834532387231, 0.854480545156894 231.37781606842444 M298.50263998151013 229.89465867882723 C209.35564312944376 230.43526263463866, 122.81759774846012 230.09302123901512, -0.07197731755988486 229.51866566679786 M0.37694837643744417 229.5173190118709 C-0.19890880011752532 155.03941346054015, 1.2661186169694334 80.06213464655606, -0.6837246854120306 -1.4391295241323299 M-0.35483221819655036 230.48943543431642 C-0.2604508488631277 140.52729413463712, 0.07588259063511799 49.89463955371738, -0.7445419921700749 0.34497595831186506" stroke="#000000" stroke-width="1" fill="none"></path></g><g transform="translate(750 10) rotate(0 70 45.5)"><path d="M-0.49040607176721096 -0.3914902750402689 C40.772696141153574 -0.16611338686197996, 85.99694375507534 0.5495121972635388, 141.15998985804617 1.8704377468675375 M0.6823529032990336 -0.14300485234707594 C40.31612565461546 -0.9620614934712648, 83.49164931382984 -1.4266672123223543, 139.90228805225343 -0.6534296749159694 M140.44348433054984 -0.5678800288587809 C139.90156281388366 30.996454830188302, 141.6251853147801 61.97327099721878, 139.19558962620795 89.30684668384492 M139.58253559749573 0.5758267166092992 C139.74641724464485 35.69008259484544, 140.1421176099498 70.01547147631645, 139.1240373281762 91.40586839336902 M141.68658837117255 92.30726487003267 C101.55751292407513 89.57351599689574, 64.96001744829118 91.41640369649977, 1.8422218803316355 92.89238548837602 M140.86227590125054 91.92002926487476 C103.35327897686511 90.73327886387706, 64.33812036272137 91.37798520252109, -0.2834753664210439 91.36058748979121 M0.8585959915071726 92.28710604272783 C1.4233127639535814 64.0470575432293, 0.6669509814027698 39.147102656401685, -1.9581578131765127 1.7642001565545797 M0.5452249376103282 91.55296338815242 C-0.17655029152520008 65.03234499422834, -0.12444543098099536 38.224873763695356, -0.47335672099143267 0.5977210225537419" stroke="#000000" stroke-width="1" fill="none"></path></g><g transform="translate(25 57.5) rotate(0 45.5 13)"><text x="0" y="18" font-family="Virgil" font-size="20px" fill="#000000" text-anchor="start" style="white-space: pre;" direction="ltr">Clipboard</text></g><g transform="translate(393.5 25.5) rotate(0 100.5 26)"><text x="100.5" y="18" font-family="Virgil" font-size="20px" fill="#000000" text-anchor="middle" style="white-space: pre;" direction="ltr">Plain text bookmark</text><text x="100.5" y="44" font-family="Virgil" font-size="20px" fill="#000000" text-anchor="middle" style="white-space: pre;" direction="ltr">manager app</text></g><g transform="translate(445 224) rotate(0 51 26)"><text x="51" y="18" font-family="Virgil" font-size="20px" fill="#000000" text-anchor="middle" style="white-space: pre;" direction="ltr">Plain text</text><text x="51" y="44" font-family="Virgil" font-size="20px" fill="#000000" text-anchor="middle" style="white-space: pre;" direction="ltr">file</text></g><g transform="translate(766.5 32.5) rotate(0 39.5 13)"><text x="39.5" y="18" font-family="Virgil" font-size="20px" fill="#000000" text-anchor="middle" style="white-space: pre;" direction="ltr">Browser</text></g><g><g transform="translate(382.5548026495985 69.27166369482876) rotate(0 -125.71049624346199 -0.4412122236564784)"><path d="M-1.0793827023357152 1.1175755526870488 C-43.15935545857685 0.8871648830051212, -210.08466019461238 -1.5597249046588986, -251.97579513652246 -2.0000000000000058 M0.5548026495985687 0.658698772508651 C-41.17946343933853 0.6548255360933632, -207.85415740002256 -0.5193272581386117, -249.63685112796722 -0.6537630288861749" stroke="#000000" stroke-width="1" fill="none"></path></g><g transform="translate(382.5548026495985 69.27166369482876) rotate(0 -125.71049624346199 -0.4412122236564784)"><path d="M-219.52949761499625 -11.949073876794165 C-231.71089806681186 -9.495744823414624, -240.57748404863477 -5.079795665792926, -250.62000313565133 -2.3843259486369845 M-222.2164210210831 -10.428809095713978 C-229.68135760106736 -7.499306548939616, -238.2740499062487 -3.9547722820652593, -250.1820608608052 -0.4727768507786152" stroke="#000000" stroke-width="1" fill="none"></path></g><g transform="translate(382.5548026495985 69.27166369482876) rotate(0 -125.71049624346199 -0.4412122236564784)"><path d="M-219.6381863638117 8.571846890601241 C-231.6768114972499 4.007927882402653, -240.50622555199334 1.4056513388178073, -250.62000313565133 -2.3843259486369845 M-222.32510976989857 10.092111671681428 C-229.9321395571271 6.867148136601829, -238.4922399067937 4.2581757704367655, -250.1820608608052 -0.4727768507786152" stroke="#000000" stroke-width="1" fill="none"></path></g></g><g><g transform="translate(594 63) rotate(0 78.33583099506797 -1.6790002915076911)"><path d="M-0.7834829661995173 -0.3062614168971777 C25.385186833764116 -0.34634737235804397, 131.14430100781223 -0.9460518962393205, 157.45514495633543 -1.297812732681632 M1.0060497472062706 -1.5126526061072947 C27.01774990333865 -1.8044159399842223, 130.853940167961 -3.0841523535425464, 156.74605059478432 -3.0517391661182045" stroke="#000000" stroke-width="1" fill="none"></path></g><g transform="translate(594 63) rotate(0 78.33583099506797 -1.6790002915076911)"><path d="M128.11266595972296 8.151917996545498 C139.3608292559837 4.193694273547973, 146.97119228950777 2.1570434915183334, 157.73411328013987 -4.2778543686494235 M128.31061948844757 7.566703062233691 C134.72023658214292 6.241942843413527, 140.91245746742473 2.098518841137216, 155.95056460373104 -3.956013299152255" stroke="#000000" stroke-width="1" fill="none"></path></g><g transform="translate(594 63) rotate(0 78.33583099506797 -1.6790002915076911)"><path d="M127.97821669707514 -12.368850161143259 C139.09087504913842 -9.412191520671247, 146.74653769354086 -4.534837761790538, 157.73411328013987 -4.2778543686494235 M128.17617022579975 -12.954065095455066 C134.73016679541564 -9.976309204884744, 140.95057536265244 -9.817494021095598, 155.95056460373104 -3.956013299152255" stroke="#000000" stroke-width="1" fill="none"></path></g></g><g><g transform="translate(491 126) rotate(0 -2.388729090411232 35.47807676019147)"><path d="M-1.0841648306697607 0.6794587399810552 C-1.8908314949522416 12.40624049368004, -3.7958618448426327 58.019554267947875, -4.247162374481559 69.62502140067518 M0.5475099038891496 -0.00942936686798923 C-0.49067804795379444 11.953280555723858, -4.4923081823376325 58.998397046842925, -5.324968084711582 70.96558288725093" stroke="#000000" stroke-width="1" fill="none"></path></g><g transform="translate(491 126) rotate(0 -2.388729090411232 35.47807676019147)"><path d="M-12.216756143395674 41.646693063292545 C-11.347680608032404 52.57802662672038, -7.398593011244402 64.29252129807992, -4.212207755092532 69.01945392841473 M-12.501257657793236 42.47409157859896 C-11.112867063436592 48.8098652692668, -9.198793287088739 54.43371526490466, -6.309337866511196 70.4518456380628" stroke="#000000" stroke-width="1" fill="none"></path></g><g transform="translate(491 126) rotate(0 -2.388729090411232 35.47807676019147)"><path d="M8.241585471705775 43.25176650262407 C1.972292349557418 53.43744725501185, -1.2268287358919272 64.59112423593899, -4.212207755092532 69.01945392841473 M7.957083957308214 44.079165017930485 C4.849918746562058 50.01676976818714, 2.253922453879036 55.28677907558554, -6.309337866511196 70.4518456380628" stroke="#000000" stroke-width="1" fill="none"></path></g></g><g transform="translate(487.5 143) rotate(0 21.5 13)"><text x="21.5" y="18" font-family="Virgil" font-size="20px" fill="#000000" text-anchor="middle" style="white-space: pre;" direction="ltr">save</text></g><g transform="translate(181 38) rotate(0 78 13)"><text x="78" y="18" font-family="Virgil" font-size="20px" fill="#000000" text-anchor="middle" style="white-space: pre;" direction="ltr">monitor for URL</text></g><g transform="translate(356 307) rotate(0 136 52)"><text x="0" y="18" font-family="Virgil" font-size="20px" fill="#000000" text-anchor="start" style="white-space: pre;" direction="ltr"># description</text><text x="0" y="44" font-family="Virgil" font-size="20px" fill="#000000" text-anchor="start" style="white-space: pre;" direction="ltr">http://someurl.com</text><text x="0" y="70" font-family="Virgil" font-size="20px" fill="#000000" text-anchor="start" style="white-space: pre;" direction="ltr"># description for the other</text><text x="0" y="96" font-family="Virgil" font-size="20px" fill="#000000" text-anchor="start" style="white-space: pre;" direction="ltr">https://someothersite.org</text></g><g transform="translate(642 68) rotate(0 29 13)"><text x="0" y="18" font-family="Virgil" font-size="20px" fill="#000000" text-anchor="start" style="white-space: pre;" direction="ltr">launch</text></g><g transform="translate(444 90.5) rotate(0 52 10.5)"><text x="0" y="15" font-family="Virgil" font-size="16px" fill="#000000" text-anchor="start" style="white-space: pre;" direction="ltr">(JavaFX app)</text></g></svg>